<mxfile host="65bd71144e">
    <diagram id="drqowJzIHoU7VS-kYPZM" name="ページ1">
        <mxGraphModel dx="1492" dy="2023" grid="1" gridSize="10" guides="1" tooltips="1" connect="1" arrows="1" fold="1" page="1" pageScale="1" pageWidth="827" pageHeight="1169" math="0" shadow="0">
            <root>
                <mxCell id="0"/>
                <mxCell id="1" parent="0"/>
                <mxCell id="2" value="Model" style="rounded=0;whiteSpace=wrap;html=1;strokeColor=#FF0000;fillColor=#FFCCCC;" parent="1" vertex="1">
                    <mxGeometry x="20" y="-130" width="120" height="60" as="geometry"/>
                </mxCell>
                <mxCell id="3" value="JavaScript" style="rounded=0;whiteSpace=wrap;html=1;strokeColor=#FFFF00;fillColor=#FFFFCC;" parent="1" vertex="1">
                    <mxGeometry x="820" y="-130" width="120" height="60" as="geometry"/>
                </mxCell>
                <mxCell id="4" value="Servlet" style="rounded=0;whiteSpace=wrap;html=1;strokeColor=#80FF00;fillColor=#E6FFCC;" parent="1" vertex="1">
                    <mxGeometry x="334" y="-130" width="120" height="60" as="geometry"/>
                </mxCell>
                <mxCell id="5" value="jsp" style="rounded=0;whiteSpace=wrap;html=1;strokeColor=#007FFF;fillColor=#CCE5FF;" parent="1" vertex="1">
                    <mxGeometry x="180" y="-130" width="120" height="60" as="geometry"/>
                </mxCell>
                <mxCell id="6" value="CSS" style="rounded=0;whiteSpace=wrap;html=1;strokeColor=#7F00FF;fillColor=#E5CCFF;" parent="1" vertex="1">
                    <mxGeometry x="980" y="-130" width="120" height="60" as="geometry"/>
                </mxCell>
                <mxCell id="106" style="edgeStyle=none;html=1;exitX=0;exitY=0.5;exitDx=0;exitDy=0;startArrow=classic;startFill=1;endArrow=classic;endFill=1;entryX=0.75;entryY=1;entryDx=0;entryDy=0;" parent="1" source="14" target="22" edge="1">
                    <mxGeometry relative="1" as="geometry">
                        <mxPoint x="280" y="297.5" as="targetPoint"/>
                        <Array as="points">
                            <mxPoint x="310" y="597.5"/>
                        </Array>
                    </mxGeometry>
                </mxCell>
                <mxCell id="108" style="edgeStyle=none;html=1;exitX=1;exitY=0.5;exitDx=0;exitDy=0;startArrow=classic;startFill=1;endArrow=classic;endFill=1;" parent="1" source="14" target="21" edge="1">
                    <mxGeometry relative="1" as="geometry"/>
                </mxCell>
                <mxCell id="149" style="edgeStyle=none;html=1;exitX=0.5;exitY=1;exitDx=0;exitDy=0;entryX=0.5;entryY=0;entryDx=0;entryDy=0;startArrow=classic;startFill=1;endArrow=classic;endFill=1;" parent="1" source="14" target="320" edge="1">
                    <mxGeometry relative="1" as="geometry">
                        <mxPoint x="390" y="687.5" as="targetPoint"/>
                    </mxGeometry>
                </mxCell>
                <mxCell id="14" value="SingupServlet.java" style="rounded=0;whiteSpace=wrap;html=1;strokeColor=#80FF00;fillColor=#E6FFCC;" parent="1" vertex="1">
                    <mxGeometry x="330" y="567.5" width="120" height="60" as="geometry"/>
                </mxCell>
                <mxCell id="111" style="edgeStyle=none;html=1;exitX=1;exitY=0.5;exitDx=0;exitDy=0;entryX=0;entryY=0.5;entryDx=0;entryDy=0;startArrow=none;startFill=0;endArrow=classic;endFill=1;" parent="1" source="15" target="57" edge="1">
                    <mxGeometry relative="1" as="geometry"/>
                </mxCell>
                <mxCell id="180" style="edgeStyle=none;html=1;exitX=0.5;exitY=1;exitDx=0;exitDy=0;entryX=0.5;entryY=0;entryDx=0;entryDy=0;startArrow=classic;startFill=1;endArrow=classic;endFill=1;" parent="1" source="15" target="325" edge="1">
                    <mxGeometry relative="1" as="geometry">
                        <mxPoint x="550" y="242.5" as="targetPoint"/>
                    </mxGeometry>
                </mxCell>
                <mxCell id="182" style="edgeStyle=none;html=1;exitX=0.25;exitY=1;exitDx=0;exitDy=0;startArrow=classic;startFill=1;endArrow=classic;endFill=1;" parent="1" source="15" target="45" edge="1">
                    <mxGeometry relative="1" as="geometry"/>
                </mxCell>
                <mxCell id="15" value="LoginServlet.java" style="rounded=0;whiteSpace=wrap;html=1;strokeColor=#80FF00;fillColor=#E6FFCC;" parent="1" vertex="1">
                    <mxGeometry x="490" y="142.5" width="120" height="60" as="geometry"/>
                </mxCell>
                <mxCell id="204" style="edgeStyle=none;html=1;exitX=0.5;exitY=1;exitDx=0;exitDy=0;entryX=0;entryY=0.5;entryDx=0;entryDy=0;startArrow=none;startFill=0;endArrow=classic;endFill=1;" parent="1" source="20" target="58" edge="1">
                    <mxGeometry relative="1" as="geometry">
                        <Array as="points">
                            <mxPoint x="1410" y="1080"/>
                        </Array>
                    </mxGeometry>
                </mxCell>
                <mxCell id="211" style="edgeStyle=none;html=1;exitX=1;exitY=0.5;exitDx=0;exitDy=0;startArrow=none;startFill=0;entryX=0;entryY=0.5;entryDx=0;entryDy=0;" parent="1" source="20" target="60" edge="1">
                    <mxGeometry relative="1" as="geometry">
                        <mxPoint x="2030.0000000000005" y="169.38461538461524" as="targetPoint"/>
                    </mxGeometry>
                </mxCell>
                <mxCell id="361" style="edgeStyle=none;html=1;exitX=0.25;exitY=1;exitDx=0;exitDy=0;entryX=1;entryY=0.5;entryDx=0;entryDy=0;startArrow=classic;startFill=1;endArrow=classic;endFill=1;" parent="1" source="20" target="333" edge="1">
                    <mxGeometry relative="1" as="geometry">
                        <Array as="points">
                            <mxPoint x="1380" y="565"/>
                        </Array>
                    </mxGeometry>
                </mxCell>
                <mxCell id="20" value="schedule.jsp&lt;br&gt;スケジュール閲覧&lt;br&gt;スケジュール詳細&lt;br&gt;スケジュール削除" style="rounded=0;whiteSpace=wrap;html=1;strokeColor=#007FFF;fillColor=#CCE5FF;" parent="1" vertex="1">
                    <mxGeometry x="1350" y="140" width="120" height="60" as="geometry"/>
                </mxCell>
                <mxCell id="352" style="edgeStyle=none;html=1;exitX=1;exitY=0.75;exitDx=0;exitDy=0;entryX=0;entryY=0.5;entryDx=0;entryDy=0;startArrow=classic;startFill=1;" parent="1" source="21" target="337" edge="1">
                    <mxGeometry relative="1" as="geometry">
                        <Array as="points">
                            <mxPoint x="670" y="613"/>
                            <mxPoint x="670" y="720"/>
                        </Array>
                    </mxGeometry>
                </mxCell>
                <mxCell id="21" value="signup.jsp&lt;br&gt;新規登録" style="rounded=0;whiteSpace=wrap;html=1;strokeColor=#007FFF;fillColor=#CCE5FF;" parent="1" vertex="1">
                    <mxGeometry x="500" y="567.5" width="120" height="60" as="geometry"/>
                </mxCell>
                <mxCell id="105" style="edgeStyle=none;html=1;exitX=0.25;exitY=1;exitDx=0;exitDy=0;entryX=0;entryY=0.5;entryDx=0;entryDy=0;startArrow=classic;startFill=1;" parent="1" source="22" target="56" edge="1">
                    <mxGeometry relative="1" as="geometry">
                        <Array as="points">
                            <mxPoint x="250" y="1070"/>
                        </Array>
                    </mxGeometry>
                </mxCell>
                <mxCell id="243" style="edgeStyle=none;html=1;exitX=1;exitY=0.5;exitDx=0;exitDy=0;entryX=0;entryY=0.5;entryDx=0;entryDy=0;startArrow=classic;startFill=1;endArrow=classic;endFill=1;" parent="1" source="22" target="15" edge="1">
                    <mxGeometry relative="1" as="geometry"/>
                </mxCell>
                <mxCell id="351" style="edgeStyle=none;html=1;exitX=0;exitY=0.75;exitDx=0;exitDy=0;entryX=1;entryY=0.25;entryDx=0;entryDy=0;" parent="1" source="22" target="348" edge="1">
                    <mxGeometry relative="1" as="geometry"/>
                </mxCell>
                <mxCell id="22" value="login.jsp&lt;br&gt;ログイン" style="rounded=0;whiteSpace=wrap;html=1;strokeColor=#007FFF;fillColor=#CCE5FF;" parent="1" vertex="1">
                    <mxGeometry x="220" y="142.5" width="120" height="60" as="geometry"/>
                </mxCell>
                <mxCell id="116" style="edgeStyle=none;html=1;exitX=1;exitY=0.3333333333333333;exitDx=0;exitDy=0;exitPerimeter=0;startArrow=none;startFill=0;endArrow=classic;endFill=1;" parent="1" source="37" edge="1">
                    <mxGeometry relative="1" as="geometry">
                        <mxPoint x="530" y="127.5" as="targetPoint"/>
                    </mxGeometry>
                </mxCell>
                <mxCell id="37" value="Actor" style="shape=umlActor;verticalLabelPosition=bottom;verticalAlign=top;html=1;outlineConnect=0;strokeColor=#000000;fillColor=#FFFFFF;" parent="1" vertex="1">
                    <mxGeometry x="440" y="57.5" width="30" height="60" as="geometry"/>
                </mxCell>
                <mxCell id="246" style="edgeStyle=none;html=1;exitX=1;exitY=0.5;exitDx=0;exitDy=0;startArrow=none;startFill=0;endArrow=classic;endFill=1;" parent="1" source="40" edge="1">
                    <mxGeometry relative="1" as="geometry">
                        <mxPoint x="1940" y="695.666666666667" as="targetPoint"/>
                    </mxGeometry>
                </mxCell>
                <mxCell id="372" style="edgeStyle=none;html=1;exitX=0.75;exitY=1;exitDx=0;exitDy=0;entryX=0;entryY=0.5;entryDx=0;entryDy=0;startArrow=classic;startFill=1;endArrow=classic;endFill=1;" parent="1" source="40" target="345" edge="1">
                    <mxGeometry relative="1" as="geometry">
                        <Array as="points">
                            <mxPoint x="1740" y="770"/>
                        </Array>
                    </mxGeometry>
                </mxCell>
                <mxCell id="40" value="スケジュール編集" style="rounded=0;whiteSpace=wrap;html=1;strokeColor=#007FFF;fillColor=#CCE5FF;" parent="1" vertex="1">
                    <mxGeometry x="1650" y="665" width="120" height="60" as="geometry"/>
                </mxCell>
                <mxCell id="240" style="edgeStyle=none;html=1;exitX=0.5;exitY=1;exitDx=0;exitDy=0;endArrow=classic;endFill=1;entryX=0;entryY=0.5;entryDx=0;entryDy=0;startArrow=classic;startFill=1;" parent="1" source="41" target="99" edge="1">
                    <mxGeometry relative="1" as="geometry">
                        <mxPoint x="2530" y="320" as="targetPoint"/>
                        <Array as="points">
                            <mxPoint x="2460" y="285"/>
                        </Array>
                    </mxGeometry>
                </mxCell>
                <mxCell id="244" style="edgeStyle=none;html=1;exitX=0.25;exitY=0;exitDx=0;exitDy=0;startArrow=none;startFill=0;endArrow=classic;endFill=1;" parent="1" source="41" edge="1">
                    <mxGeometry relative="1" as="geometry">
                        <mxPoint x="1930" y="90" as="targetPoint"/>
                        <Array as="points">
                            <mxPoint x="2430" y="90"/>
                        </Array>
                    </mxGeometry>
                </mxCell>
                <mxCell id="41" value="ふれあい&lt;br&gt;きせかえ" style="rounded=0;whiteSpace=wrap;html=1;strokeColor=#007FFF;fillColor=#CCE5FF;" parent="1" vertex="1">
                    <mxGeometry x="2400" y="140" width="120" height="60" as="geometry"/>
                </mxCell>
                <mxCell id="236" style="edgeStyle=none;html=1;exitX=0.75;exitY=0;exitDx=0;exitDy=0;entryX=0.5;entryY=0;entryDx=0;entryDy=0;" parent="1" source="61" target="57" edge="1">
                    <mxGeometry relative="1" as="geometry">
                        <Array as="points">
                            <mxPoint x="1580" y="230"/>
                            <mxPoint x="1940" y="230"/>
                            <mxPoint x="1940" y="180"/>
                            <mxPoint x="1960" y="180"/>
                            <mxPoint x="1960" y="170"/>
                            <mxPoint x="1960" y="160"/>
                            <mxPoint x="1940" y="160"/>
                            <mxPoint x="1940" y="90"/>
                            <mxPoint x="1180" y="90"/>
                        </Array>
                    </mxGeometry>
                </mxCell>
                <mxCell id="245" style="edgeStyle=none;html=1;exitX=1;exitY=0.5;exitDx=0;exitDy=0;startArrow=none;startFill=0;endArrow=classic;endFill=1;" parent="1" source="42" edge="1">
                    <mxGeometry relative="1" as="geometry">
                        <mxPoint x="1940" y="290.66666666666697" as="targetPoint"/>
                    </mxGeometry>
                </mxCell>
                <mxCell id="375" style="edgeStyle=none;html=1;exitX=0.75;exitY=1;exitDx=0;exitDy=0;entryX=0;entryY=0.5;entryDx=0;entryDy=0;startArrow=classic;startFill=1;endArrow=classic;endFill=1;" parent="1" source="42" target="369" edge="1">
                    <mxGeometry relative="1" as="geometry">
                        <Array as="points">
                            <mxPoint x="1740" y="380"/>
                        </Array>
                    </mxGeometry>
                </mxCell>
                <mxCell id="42" value="スケジュール登録" style="rounded=0;whiteSpace=wrap;html=1;strokeColor=#007FFF;fillColor=#CCE5FF;" parent="1" vertex="1">
                    <mxGeometry x="1650" y="260" width="120" height="60" as="geometry"/>
                </mxCell>
                <mxCell id="261" style="edgeStyle=none;html=1;exitX=1;exitY=0.5;exitDx=0;exitDy=0;entryX=0.5;entryY=0;entryDx=0;entryDy=0;startArrow=none;startFill=0;endArrow=classic;endFill=1;" parent="1" source="44" target="60" edge="1">
                    <mxGeometry relative="1" as="geometry">
                        <Array as="points">
                            <mxPoint x="2950" y="285"/>
                            <mxPoint x="2950" y="20"/>
                            <mxPoint x="2230" y="20"/>
                            <mxPoint x="2230" y="80"/>
                            <mxPoint x="2210" y="80"/>
                            <mxPoint x="2210" y="100"/>
                            <mxPoint x="2230" y="100"/>
                        </Array>
                    </mxGeometry>
                </mxCell>
                <mxCell id="377" style="edgeStyle=none;html=1;exitX=0.75;exitY=1;exitDx=0;exitDy=0;entryX=0;entryY=0.5;entryDx=0;entryDy=0;startArrow=classic;startFill=1;endArrow=classic;endFill=1;" parent="1" source="44" target="338" edge="1">
                    <mxGeometry relative="1" as="geometry"/>
                </mxCell>
                <mxCell id="378" style="edgeStyle=none;html=1;exitX=0.75;exitY=1;exitDx=0;exitDy=0;entryX=0;entryY=0.5;entryDx=0;entryDy=0;startArrow=classic;startFill=1;endArrow=classic;endFill=1;" parent="1" source="44" target="347" edge="1">
                    <mxGeometry relative="1" as="geometry"/>
                </mxCell>
                <mxCell id="380" style="edgeStyle=none;html=1;exitX=0.75;exitY=1;exitDx=0;exitDy=0;entryX=0;entryY=0.5;entryDx=0;entryDy=0;startArrow=classic;startFill=1;endArrow=classic;endFill=1;" parent="1" source="44" target="379" edge="1">
                    <mxGeometry relative="1" as="geometry"/>
                </mxCell>
                <mxCell id="44" value="ガチャ&lt;br&gt;ガチャの結果" style="rounded=0;whiteSpace=wrap;html=1;strokeColor=#007FFF;fillColor=#CCE5FF;" parent="1" vertex="1">
                    <mxGeometry x="2790" y="255" width="120" height="60" as="geometry"/>
                </mxCell>
                <mxCell id="45" value="User.java&lt;br&gt;ユーザ名&lt;br&gt;パスワード&lt;br&gt;メールアドレス&lt;br&gt;ペット名&lt;br&gt;ペット種類ID&lt;br&gt;スケジュール完了数" style="rounded=0;whiteSpace=wrap;html=1;strokeColor=#FF0000;fillColor=#FFCCCC;" parent="1" vertex="1">
                    <mxGeometry x="350" y="227.5" width="120" height="120" as="geometry"/>
                </mxCell>
                <mxCell id="47" value="DAO" style="rounded=0;whiteSpace=wrap;html=1;strokeColor=#FF8000;fillColor=#FFE6CC;" parent="1" vertex="1">
                    <mxGeometry x="490" y="-130" width="120" height="60" as="geometry"/>
                </mxCell>
                <mxCell id="54" value="DatabaseTable" style="rounded=0;whiteSpace=wrap;html=1;strokeColor=#00FFFF;fillColor=#CCFFFF;" parent="1" vertex="1">
                    <mxGeometry x="650" y="-130" width="120" height="60" as="geometry"/>
                </mxCell>
                <mxCell id="357" style="edgeStyle=none;html=1;exitX=1;exitY=0.5;exitDx=0;exitDy=0;entryX=0;entryY=0.5;entryDx=0;entryDy=0;startArrow=classic;startFill=1;endArrow=classic;endFill=1;" parent="1" source="55" target="350" edge="1">
                    <mxGeometry relative="1" as="geometry"/>
                </mxCell>
                <mxCell id="55" value="inquiry.jsp&lt;br&gt;お問い合わせ" style="rounded=0;whiteSpace=wrap;html=1;strokeColor=#007FFF;fillColor=#CCE5FF;" parent="1" vertex="1">
                    <mxGeometry x="500" y="1040" width="120" height="60" as="geometry"/>
                </mxCell>
                <mxCell id="109" style="edgeStyle=none;html=1;exitX=1;exitY=0.5;exitDx=0;exitDy=0;entryX=0;entryY=0.5;entryDx=0;entryDy=0;startArrow=none;startFill=0;endArrow=classic;endFill=1;" parent="1" source="56" target="55" edge="1">
                    <mxGeometry relative="1" as="geometry"/>
                </mxCell>
                <mxCell id="110" value="" style="edgeStyle=none;html=1;startArrow=classic;startFill=1;endArrow=classic;endFill=1;" parent="1" source="56" target="55" edge="1">
                    <mxGeometry relative="1" as="geometry"/>
                </mxCell>
                <mxCell id="133" style="edgeStyle=none;html=1;exitX=0.5;exitY=1;exitDx=0;exitDy=0;entryX=0.5;entryY=0;entryDx=0;entryDy=0;startArrow=classic;startFill=1;endArrow=classic;endFill=1;" parent="1" source="56" target="319" edge="1">
                    <mxGeometry relative="1" as="geometry">
                        <mxPoint x="390" y="1155" as="targetPoint"/>
                    </mxGeometry>
                </mxCell>
                <mxCell id="56" value="InquiryServlet.java" style="rounded=0;whiteSpace=wrap;html=1;strokeColor=#80FF00;fillColor=#E6FFCC;" parent="1" vertex="1">
                    <mxGeometry x="330" y="1040" width="120" height="60" as="geometry"/>
                </mxCell>
                <mxCell id="147" style="edgeStyle=none;html=1;exitX=1;exitY=0.5;exitDx=0;exitDy=0;entryX=0;entryY=0.5;entryDx=0;entryDy=0;startArrow=classic;startFill=1;endArrow=classic;endFill=1;" parent="1" source="57" target="20" edge="1">
                    <mxGeometry relative="1" as="geometry"/>
                </mxCell>
                <mxCell id="183" style="edgeStyle=none;html=1;exitX=0.5;exitY=1;exitDx=0;exitDy=0;startArrow=classic;startFill=1;endArrow=classic;endFill=1;entryX=0.5;entryY=0;entryDx=0;entryDy=0;" parent="1" source="57" target="318" edge="1">
                    <mxGeometry relative="1" as="geometry">
                        <mxPoint x="1180" y="250" as="targetPoint"/>
                    </mxGeometry>
                </mxCell>
                <mxCell id="57" value="Schedule_list&lt;br&gt;Servlet.java" style="rounded=0;whiteSpace=wrap;html=1;strokeColor=#80FF00;fillColor=#E6FFCC;" parent="1" vertex="1">
                    <mxGeometry x="1120" y="140" width="120" height="60" as="geometry"/>
                </mxCell>
                <mxCell id="166" style="edgeStyle=none;html=1;exitX=1;exitY=0.5;exitDx=0;exitDy=0;entryX=0;entryY=0.5;entryDx=0;entryDy=0;startArrow=classic;startFill=1;endArrow=classic;endFill=1;" parent="1" source="59" target="40" edge="1">
                    <mxGeometry relative="1" as="geometry"/>
                </mxCell>
                <mxCell id="206" style="edgeStyle=none;html=1;exitX=0;exitY=0.5;exitDx=0;exitDy=0;startArrow=classic;startFill=1;endArrow=none;endFill=0;" parent="1" source="59" edge="1">
                    <mxGeometry relative="1" as="geometry">
                        <mxPoint x="1410" y="695" as="targetPoint"/>
                    </mxGeometry>
                </mxCell>
                <mxCell id="216" style="edgeStyle=none;html=1;exitX=0.25;exitY=1;exitDx=0;exitDy=0;entryX=0.75;entryY=0;entryDx=0;entryDy=0;startArrow=classic;startFill=1;" parent="1" source="59" target="215" edge="1">
                    <mxGeometry relative="1" as="geometry"/>
                </mxCell>
                <mxCell id="241" style="edgeStyle=none;html=1;exitX=0.75;exitY=0;exitDx=0;exitDy=0;startArrow=none;startFill=0;endArrow=classic;endFill=1;" parent="1" source="59" edge="1">
                    <mxGeometry relative="1" as="geometry">
                        <mxPoint x="1940" y="640" as="targetPoint"/>
                        <Array as="points">
                            <mxPoint x="1580" y="640"/>
                        </Array>
                    </mxGeometry>
                </mxCell>
                <mxCell id="59" value="Schedule_edit&lt;br&gt;Servlet.java" style="rounded=0;whiteSpace=wrap;html=1;strokeColor=#80FF00;fillColor=#E6FFCC;" parent="1" vertex="1">
                    <mxGeometry x="1490" y="665" width="120" height="60" as="geometry"/>
                </mxCell>
                <mxCell id="144" style="edgeStyle=none;html=1;exitX=1;exitY=0.5;exitDx=0;exitDy=0;startArrow=classic;startFill=1;endArrow=classic;endFill=1;" parent="1" source="60" target="41" edge="1">
                    <mxGeometry relative="1" as="geometry"/>
                </mxCell>
                <mxCell id="219" style="edgeStyle=none;html=1;exitX=0.5;exitY=1;exitDx=0;exitDy=0;entryX=0.5;entryY=0;entryDx=0;entryDy=0;startArrow=classic;startFill=1;" parent="1" source="60" target="323" edge="1">
                    <mxGeometry relative="1" as="geometry">
                        <mxPoint x="2230" y="260" as="targetPoint"/>
                    </mxGeometry>
                </mxCell>
                <mxCell id="260" style="edgeStyle=none;html=1;exitX=0.75;exitY=1;exitDx=0;exitDy=0;entryX=0.25;entryY=0;entryDx=0;entryDy=0;startArrow=classic;startFill=1;endArrow=classic;endFill=1;" parent="1" source="60" target="259" edge="1">
                    <mxGeometry relative="1" as="geometry"/>
                </mxCell>
                <mxCell id="60" value="Pet_home&lt;br&gt;Servlet.java" style="rounded=0;whiteSpace=wrap;html=1;strokeColor=#80FF00;fillColor=#E6FFCC;" parent="1" vertex="1">
                    <mxGeometry x="2170" y="140" width="120" height="60" as="geometry"/>
                </mxCell>
                <mxCell id="151" style="edgeStyle=none;html=1;exitX=1;exitY=0.5;exitDx=0;exitDy=0;entryX=0;entryY=0.5;entryDx=0;entryDy=0;startArrow=classic;startFill=1;endArrow=classic;endFill=1;" parent="1" source="61" target="42" edge="1">
                    <mxGeometry relative="1" as="geometry"/>
                </mxCell>
                <mxCell id="205" style="edgeStyle=none;html=1;exitX=0;exitY=0.5;exitDx=0;exitDy=0;startArrow=classic;startFill=1;endArrow=none;endFill=0;" parent="1" source="61" edge="1">
                    <mxGeometry relative="1" as="geometry">
                        <mxPoint x="1410" y="290.17647058823536" as="targetPoint"/>
                    </mxGeometry>
                </mxCell>
                <mxCell id="61" value="Schedule_regist&lt;br&gt;Servlet.java" style="rounded=0;whiteSpace=wrap;html=1;strokeColor=#80FF00;fillColor=#E6FFCC;" parent="1" vertex="1">
                    <mxGeometry x="1490" y="260" width="120" height="60" as="geometry"/>
                </mxCell>
                <mxCell id="186" style="edgeStyle=none;html=1;exitX=0.25;exitY=0;exitDx=0;exitDy=0;startArrow=classic;startFill=1;endArrow=classic;endFill=1;entryX=0.719;entryY=0.992;entryDx=0;entryDy=0;entryPerimeter=0;" parent="1" source="298" target="325" edge="1">
                    <mxGeometry relative="1" as="geometry">
                        <mxPoint x="600" y="367.5" as="sourcePoint"/>
                        <mxPoint x="600.1600000000001" y="314.74" as="targetPoint"/>
                    </mxGeometry>
                </mxCell>
                <mxCell id="196" style="edgeStyle=none;html=1;exitX=1;exitY=0.5;exitDx=0;exitDy=0;startArrow=classic;startFill=1;endArrow=none;endFill=0;" parent="1" source="303" edge="1">
                    <mxGeometry relative="1" as="geometry">
                        <mxPoint x="1180" y="418" as="targetPoint"/>
                        <mxPoint x="1060" y="420" as="sourcePoint"/>
                    </mxGeometry>
                </mxCell>
                <mxCell id="187" style="edgeStyle=none;html=1;exitX=0.75;exitY=0;exitDx=0;exitDy=0;startArrow=classic;startFill=1;endArrow=classic;endFill=1;entryX=0.25;entryY=1;entryDx=0;entryDy=0;" parent="1" source="299" target="325" edge="1">
                    <mxGeometry relative="1" as="geometry">
                        <mxPoint x="510" y="367.5" as="sourcePoint"/>
                        <mxPoint x="509.55999999999995" y="312.91999999999985" as="targetPoint"/>
                    </mxGeometry>
                </mxCell>
                <mxCell id="223" style="edgeStyle=none;html=1;exitX=1;exitY=0.5;exitDx=0;exitDy=0;startArrow=classic;startFill=1;endArrow=none;endFill=0;" parent="1" source="65" edge="1">
                    <mxGeometry relative="1" as="geometry">
                        <mxPoint x="2230" y="380.0000000000002" as="targetPoint"/>
                    </mxGeometry>
                </mxCell>
                <mxCell id="65" value="[PET]&lt;br&gt;pet_id&lt;br&gt;pet_img_path" style="rounded=0;whiteSpace=wrap;html=1;strokeColor=#00FFFF;fillColor=#CCFFFF;" parent="1" vertex="1">
                    <mxGeometry x="2030" y="345" width="120" height="70" as="geometry"/>
                </mxCell>
                <mxCell id="222" style="edgeStyle=none;html=1;exitX=1;exitY=0.5;exitDx=0;exitDy=0;startArrow=classic;startFill=1;endArrow=none;endFill=0;" parent="1" source="308" edge="1">
                    <mxGeometry relative="1" as="geometry">
                        <mxPoint x="2230" y="490" as="targetPoint"/>
                        <mxPoint x="2150" y="490" as="sourcePoint"/>
                    </mxGeometry>
                </mxCell>
                <mxCell id="218" style="edgeStyle=none;html=1;exitX=0.25;exitY=1;exitDx=0;exitDy=0;entryX=0.75;entryY=0;entryDx=0;entryDy=0;startArrow=classic;startFill=1;" parent="1" source="58" target="217" edge="1">
                    <mxGeometry relative="1" as="geometry"/>
                </mxCell>
                <mxCell id="237" style="edgeStyle=none;html=1;exitX=1;exitY=0.5;exitDx=0;exitDy=0;endArrow=classic;endFill=1;" parent="1" source="58" edge="1">
                    <mxGeometry relative="1" as="geometry">
                        <mxPoint x="1940" y="220" as="targetPoint"/>
                        <Array as="points">
                            <mxPoint x="1940" y="1080"/>
                        </Array>
                    </mxGeometry>
                </mxCell>
                <mxCell id="58" value="Schedule_list&lt;br&gt;Servlet.java" style="rounded=0;whiteSpace=wrap;html=1;strokeColor=#80FF00;fillColor=#E6FFCC;" parent="1" vertex="1">
                    <mxGeometry x="1490" y="1050" width="120" height="60" as="geometry"/>
                </mxCell>
                <mxCell id="194" style="edgeStyle=none;html=1;exitX=0.5;exitY=1;exitDx=0;exitDy=0;entryX=1;entryY=0.5;entryDx=0;entryDy=0;startArrow=classic;startFill=1;endArrow=classic;endFill=1;" parent="1" source="318" target="179" edge="1">
                    <mxGeometry relative="1" as="geometry">
                        <Array as="points">
                            <mxPoint x="1180" y="390"/>
                            <mxPoint x="1180" y="673"/>
                        </Array>
                        <mxPoint x="1180" y="345" as="sourcePoint"/>
                    </mxGeometry>
                </mxCell>
                <mxCell id="210" style="edgeStyle=none;html=1;exitX=0;exitY=0.5;exitDx=0;exitDy=0;entryX=1;entryY=0.5;entryDx=0;entryDy=0;startArrow=classic;startFill=1;" parent="1" source="318" target="209" edge="1">
                    <mxGeometry relative="1" as="geometry">
                        <mxPoint x="1120" y="295" as="sourcePoint"/>
                    </mxGeometry>
                </mxCell>
                <mxCell id="90" value="[MESSAGE]&lt;br&gt;pet_id&lt;br&gt;message_id&lt;br&gt;message_content" style="rounded=0;whiteSpace=wrap;html=1;strokeColor=#00FFFF;fillColor=#CCFFFF;" parent="1" vertex="1">
                    <mxGeometry x="2030" y="565" width="120" height="60" as="geometry"/>
                </mxCell>
                <mxCell id="220" style="edgeStyle=none;html=1;exitX=0.5;exitY=1;exitDx=0;exitDy=0;entryX=1;entryY=0.5;entryDx=0;entryDy=0;startArrow=classic;startFill=1;" parent="1" source="323" target="90" edge="1">
                    <mxGeometry relative="1" as="geometry">
                        <Array as="points">
                            <mxPoint x="2230" y="595"/>
                        </Array>
                        <mxPoint x="2230" y="320" as="sourcePoint"/>
                    </mxGeometry>
                </mxCell>
                <mxCell id="229" style="edgeStyle=none;html=1;exitX=1;exitY=0.5;exitDx=0;exitDy=0;startArrow=classic;startFill=1;endArrow=classic;endFill=1;exitPerimeter=0;" parent="1" source="99" target="44" edge="1">
                    <mxGeometry relative="1" as="geometry"/>
                </mxCell>
                <mxCell id="254" style="edgeStyle=none;html=1;exitX=0.5;exitY=1;exitDx=0;exitDy=0;startArrow=classic;startFill=1;endArrow=classic;endFill=1;entryX=0.5;entryY=0;entryDx=0;entryDy=0;" parent="1" source="99" target="326" edge="1">
                    <mxGeometry relative="1" as="geometry">
                        <mxPoint x="2660" y="365" as="targetPoint"/>
                    </mxGeometry>
                </mxCell>
                <mxCell id="99" value="GachaServlet.java" style="rounded=0;whiteSpace=wrap;html=1;strokeColor=#80FF00;fillColor=#E6FFCC;" parent="1" vertex="1">
                    <mxGeometry x="2570" y="255" width="120" height="60" as="geometry"/>
                </mxCell>
                <mxCell id="127" value="insert" style="text;html=1;strokeColor=none;fillColor=none;align=center;verticalAlign=middle;whiteSpace=wrap;rounded=0;" parent="1" vertex="1">
                    <mxGeometry x="394" y="780" width="60" height="30" as="geometry"/>
                </mxCell>
                <mxCell id="128" value="insert" style="text;html=1;strokeColor=none;fillColor=none;align=center;verticalAlign=middle;whiteSpace=wrap;rounded=0;" parent="1" vertex="1">
                    <mxGeometry x="464" y="317.5" width="60" height="30" as="geometry"/>
                </mxCell>
                <mxCell id="134" value="insert" style="text;html=1;strokeColor=none;fillColor=none;align=center;verticalAlign=middle;whiteSpace=wrap;rounded=0;" parent="1" vertex="1">
                    <mxGeometry x="460" y="1185" width="60" height="35" as="geometry"/>
                </mxCell>
                <mxCell id="142" style="edgeStyle=none;html=1;exitX=1;exitY=0.5;exitDx=0;exitDy=0;entryX=0;entryY=0.5;entryDx=0;entryDy=0;startArrow=classic;startFill=1;endArrow=classic;endFill=1;" parent="1" source="319" target="302" edge="1">
                    <mxGeometry relative="1" as="geometry">
                        <mxPoint x="524" y="1190" as="targetPoint"/>
                        <mxPoint x="450" y="1190" as="sourcePoint"/>
                    </mxGeometry>
                </mxCell>
                <mxCell id="213" style="edgeStyle=none;html=1;exitX=0.5;exitY=0;exitDx=0;exitDy=0;startArrow=classic;startFill=1;" parent="1" source="322" target="61" edge="1">
                    <mxGeometry relative="1" as="geometry">
                        <mxPoint x="1624.8400000000001" y="378.89999999999964" as="sourcePoint"/>
                    </mxGeometry>
                </mxCell>
                <mxCell id="157" value="select" style="text;html=1;strokeColor=none;fillColor=none;align=center;verticalAlign=middle;whiteSpace=wrap;rounded=0;" parent="1" vertex="1">
                    <mxGeometry x="1090" y="425" width="60" height="30" as="geometry"/>
                </mxCell>
                <mxCell id="158" value="insert" style="text;html=1;strokeColor=none;fillColor=none;align=center;verticalAlign=middle;whiteSpace=wrap;rounded=0;" parent="1" vertex="1">
                    <mxGeometry x="1640" y="447.5" width="60" height="30" as="geometry"/>
                </mxCell>
                <mxCell id="161" style="edgeStyle=none;html=1;entryX=0.5;entryY=0;entryDx=0;entryDy=0;startArrow=classic;startFill=1;endArrow=classic;endFill=1;exitX=0.75;exitY=1;exitDx=0;exitDy=0;" parent="1" source="59" target="321" edge="1">
                    <mxGeometry relative="1" as="geometry">
                        <mxPoint x="1580" y="745" as="sourcePoint"/>
                        <mxPoint x="1630" y="790" as="targetPoint"/>
                    </mxGeometry>
                </mxCell>
                <mxCell id="165" value="update" style="text;html=1;strokeColor=none;fillColor=none;align=center;verticalAlign=middle;whiteSpace=wrap;rounded=0;" parent="1" vertex="1">
                    <mxGeometry x="1640" y="860" width="60" height="30" as="geometry"/>
                </mxCell>
                <mxCell id="172" style="edgeStyle=none;html=1;entryX=0.5;entryY=0;entryDx=0;entryDy=0;startArrow=classic;startFill=1;endArrow=classic;endFill=1;exitX=0.75;exitY=1;exitDx=0;exitDy=0;" parent="1" source="58" target="324" edge="1">
                    <mxGeometry relative="1" as="geometry">
                        <mxPoint x="1640" y="1110" as="sourcePoint"/>
                        <mxPoint x="1630" y="1162.5" as="targetPoint"/>
                    </mxGeometry>
                </mxCell>
                <mxCell id="173" style="edgeStyle=none;html=1;exitX=1;exitY=0.5;exitDx=0;exitDy=0;entryX=0;entryY=0.25;entryDx=0;entryDy=0;startArrow=classic;startFill=1;endArrow=classic;endFill=1;" parent="1" source="324" target="327" edge="1">
                    <mxGeometry relative="1" as="geometry">
                        <mxPoint x="1693.2399999999998" y="1195.1" as="sourcePoint"/>
                        <mxPoint x="1770" y="1195" as="targetPoint"/>
                    </mxGeometry>
                </mxCell>
                <mxCell id="176" value="delete" style="text;html=1;strokeColor=none;fillColor=none;align=center;verticalAlign=middle;whiteSpace=wrap;rounded=0;" parent="1" vertex="1">
                    <mxGeometry x="1700" y="1200" width="60" height="30" as="geometry"/>
                </mxCell>
                <mxCell id="179" value="[SCHEDULE_COLOR]&lt;br&gt;color_id&lt;br&gt;color_code&lt;br&gt;color_name" style="rounded=0;whiteSpace=wrap;html=1;strokeColor=#00FFFF;fillColor=#CCFFFF;" parent="1" vertex="1">
                    <mxGeometry x="940" y="640" width="120" height="67.5" as="geometry"/>
                </mxCell>
                <mxCell id="188" value="select" style="text;html=1;strokeColor=none;fillColor=none;align=center;verticalAlign=middle;whiteSpace=wrap;rounded=0;" parent="1" vertex="1">
                    <mxGeometry x="580" y="317.5" width="60" height="30" as="geometry"/>
                </mxCell>
                <mxCell id="201" style="edgeStyle=none;html=1;exitX=1;exitY=0.5;exitDx=0;exitDy=0;startArrow=classic;startFill=1;endArrow=none;endFill=0;" parent="1" source="189" edge="1">
                    <mxGeometry relative="1" as="geometry">
                        <mxPoint x="1180" y="557.5" as="targetPoint"/>
                    </mxGeometry>
                </mxCell>
                <mxCell id="189" value="[PET]&lt;br&gt;pet_id&lt;br&gt;pet_img_path" style="rounded=0;whiteSpace=wrap;html=1;strokeColor=#00FFFF;fillColor=#CCFFFF;" parent="1" vertex="1">
                    <mxGeometry x="940" y="522.5" width="120" height="70" as="geometry"/>
                </mxCell>
                <mxCell id="198" value="select" style="text;html=1;strokeColor=none;fillColor=none;align=center;verticalAlign=middle;whiteSpace=wrap;rounded=0;" parent="1" vertex="1">
                    <mxGeometry x="1090" y="562.5" width="60" height="30" as="geometry"/>
                </mxCell>
                <mxCell id="203" value="select" style="text;html=1;strokeColor=none;fillColor=none;align=center;verticalAlign=middle;whiteSpace=wrap;rounded=0;" parent="1" vertex="1">
                    <mxGeometry x="1090" y="677.5" width="60" height="30" as="geometry"/>
                </mxCell>
                <mxCell id="209" value="Schedule.java&lt;br&gt;ユーザ名&lt;br&gt;スケジュール名&lt;br&gt;開始日時&lt;br&gt;終了日時&lt;br&gt;内容" style="rounded=0;whiteSpace=wrap;html=1;strokeColor=#FF0000;fillColor=#FFCCCC;" parent="1" vertex="1">
                    <mxGeometry x="940" y="225" width="120" height="100" as="geometry"/>
                </mxCell>
                <mxCell id="214" style="edgeStyle=none;html=1;exitX=0.75;exitY=0;exitDx=0;exitDy=0;entryX=0.25;entryY=1;entryDx=0;entryDy=0;startArrow=classic;startFill=1;" parent="1" source="212" target="61" edge="1">
                    <mxGeometry relative="1" as="geometry"/>
                </mxCell>
                <mxCell id="212" value="Schedule.java&lt;br&gt;ユーザ名&lt;br&gt;スケジュール名&lt;br&gt;開始日時&lt;br&gt;終了日時&lt;br&gt;内容" style="rounded=0;whiteSpace=wrap;html=1;strokeColor=#FF0000;fillColor=#FFCCCC;" parent="1" vertex="1">
                    <mxGeometry x="1430" y="365" width="120" height="100" as="geometry"/>
                </mxCell>
                <mxCell id="215" value="Schedule.java&lt;br&gt;ユーザ名&lt;br&gt;スケジュール名&lt;br&gt;開始日時&lt;br&gt;終了日時&lt;br&gt;内容" style="rounded=0;whiteSpace=wrap;html=1;strokeColor=#FF0000;fillColor=#FFCCCC;" parent="1" vertex="1">
                    <mxGeometry x="1430" y="790" width="120" height="100" as="geometry"/>
                </mxCell>
                <mxCell id="217" value="Schedule.java&lt;br&gt;ユーザ名&lt;br&gt;スケジュール名&lt;br&gt;開始日時&lt;br&gt;終了日時&lt;br&gt;内容" style="rounded=0;whiteSpace=wrap;html=1;strokeColor=#FF0000;fillColor=#FFCCCC;" parent="1" vertex="1">
                    <mxGeometry x="1430" y="1150" width="120" height="100" as="geometry"/>
                </mxCell>
                <mxCell id="224" value="select" style="text;html=1;strokeColor=none;fillColor=none;align=center;verticalAlign=middle;whiteSpace=wrap;rounded=0;" parent="1" vertex="1">
                    <mxGeometry x="2160" y="380" width="60" height="30" as="geometry"/>
                </mxCell>
                <mxCell id="225" value="select" style="text;html=1;strokeColor=none;fillColor=none;align=center;verticalAlign=middle;whiteSpace=wrap;rounded=0;" parent="1" vertex="1">
                    <mxGeometry x="2160" y="495" width="60" height="30" as="geometry"/>
                </mxCell>
                <mxCell id="226" value="select" style="text;html=1;strokeColor=none;fillColor=none;align=center;verticalAlign=middle;whiteSpace=wrap;rounded=0;" parent="1" vertex="1">
                    <mxGeometry x="2160" y="595" width="60" height="30" as="geometry"/>
                </mxCell>
                <mxCell id="247" value="登録しないで戻る" style="text;html=1;strokeColor=none;fillColor=none;align=center;verticalAlign=middle;whiteSpace=wrap;rounded=0;" parent="1" vertex="1">
                    <mxGeometry x="1790" y="290" width="110" height="30" as="geometry"/>
                </mxCell>
                <mxCell id="248" value="編集しないで戻る" style="text;html=1;strokeColor=none;fillColor=none;align=center;verticalAlign=middle;whiteSpace=wrap;rounded=0;" parent="1" vertex="1">
                    <mxGeometry x="1790" y="695" width="110" height="30" as="geometry"/>
                </mxCell>
                <mxCell id="249" value="登録した後、戻る" style="text;html=1;strokeColor=none;fillColor=none;align=center;verticalAlign=middle;whiteSpace=wrap;rounded=0;" parent="1" vertex="1">
                    <mxGeometry x="1710" y="200" width="110" height="30" as="geometry"/>
                </mxCell>
                <mxCell id="251" value="編集した後、戻る" style="text;html=1;strokeColor=none;fillColor=none;align=center;verticalAlign=middle;whiteSpace=wrap;rounded=0;" parent="1" vertex="1">
                    <mxGeometry x="1710" y="615" width="110" height="30" as="geometry"/>
                </mxCell>
                <mxCell id="256" style="edgeStyle=none;html=1;startArrow=classic;startFill=1;endArrow=classic;endFill=1;entryX=0.5;entryY=0;entryDx=0;entryDy=0;exitX=0.5;exitY=1;exitDx=0;exitDy=0;" parent="1" source="326" target="309" edge="1">
                    <mxGeometry relative="1" as="geometry">
                        <mxPoint x="2820" y="395" as="targetPoint"/>
                        <mxPoint x="2720" y="400" as="sourcePoint"/>
                    </mxGeometry>
                </mxCell>
                <mxCell id="257" value="select" style="text;html=1;strokeColor=none;fillColor=none;align=center;verticalAlign=middle;whiteSpace=wrap;rounded=0;" parent="1" vertex="1">
                    <mxGeometry x="2640" y="455" width="60" height="30" as="geometry"/>
                </mxCell>
                <mxCell id="259" value="Pet.java&lt;br&gt;ユーザ名&lt;br&gt;ペット名&lt;br&gt;ペット種類ID&lt;br&gt;&lt;br&gt;*着せ替え数による&lt;br&gt;(きせかえ画像ID&lt;br&gt;きせかえ種類ID)" style="rounded=0;whiteSpace=wrap;html=1;strokeColor=#FF0000;fillColor=#FFCCCC;" parent="1" vertex="1">
                    <mxGeometry x="2310" y="260" width="120" height="120" as="geometry"/>
                </mxCell>
                <mxCell id="298" value="&lt;div style=&quot;&quot;&gt;&lt;span style=&quot;background-color: initial;&quot;&gt;[USER]&lt;/span&gt;&lt;/div&gt;&lt;div style=&quot;&quot;&gt;&lt;span style=&quot;background-color: initial;&quot;&gt;user_name&lt;/span&gt;&lt;/div&gt;&lt;div style=&quot;&quot;&gt;password&lt;/div&gt;&lt;div style=&quot;&quot;&gt;email&lt;/div&gt;&lt;div style=&quot;&quot;&gt;pet_name&lt;/div&gt;&lt;div style=&quot;&quot;&gt;pet_id&lt;/div&gt;&lt;div style=&quot;&quot;&gt;done_cnt&lt;/div&gt;&lt;div style=&quot;&quot;&gt;last_login_date&lt;/div&gt;&lt;div style=&quot;&quot;&gt;login_days&lt;/div&gt;&lt;div style=&quot;&quot;&gt;coin_cnt&lt;/div&gt;" style="rounded=0;whiteSpace=wrap;html=1;strokeColor=#00FFFF;fillColor=#CCFFFF;align=center;" parent="1" vertex="1">
                    <mxGeometry x="570" y="367.5" width="120" height="150" as="geometry"/>
                </mxCell>
                <mxCell id="299" value="&lt;div style=&quot;&quot;&gt;&lt;span style=&quot;background-color: initial;&quot;&gt;[USER]&lt;/span&gt;&lt;/div&gt;&lt;div style=&quot;&quot;&gt;&lt;span style=&quot;background-color: initial;&quot;&gt;user_name&lt;/span&gt;&lt;/div&gt;&lt;div style=&quot;&quot;&gt;password&lt;/div&gt;&lt;div style=&quot;&quot;&gt;email&lt;/div&gt;&lt;div style=&quot;&quot;&gt;pet_name&lt;/div&gt;&lt;div style=&quot;&quot;&gt;pet_id&lt;/div&gt;&lt;div style=&quot;&quot;&gt;done_cnt&lt;/div&gt;&lt;div style=&quot;&quot;&gt;last_login_date&lt;/div&gt;&lt;div style=&quot;&quot;&gt;login_days&lt;/div&gt;&lt;div style=&quot;&quot;&gt;coin_cnt&lt;/div&gt;" style="rounded=0;whiteSpace=wrap;html=1;strokeColor=#00FFFF;fillColor=#CCFFFF;align=center;" parent="1" vertex="1">
                    <mxGeometry x="430" y="367.5" width="120" height="150" as="geometry"/>
                </mxCell>
                <mxCell id="301" value="&lt;div style=&quot;&quot;&gt;&lt;span style=&quot;background-color: initial;&quot;&gt;[USER]&lt;/span&gt;&lt;/div&gt;&lt;div style=&quot;&quot;&gt;&lt;span style=&quot;background-color: initial;&quot;&gt;user_name&lt;/span&gt;&lt;/div&gt;&lt;div style=&quot;&quot;&gt;password&lt;/div&gt;&lt;div style=&quot;&quot;&gt;email&lt;/div&gt;&lt;div style=&quot;&quot;&gt;pet_name&lt;/div&gt;&lt;div style=&quot;&quot;&gt;pet_id&lt;/div&gt;&lt;div style=&quot;&quot;&gt;done_cnt&lt;/div&gt;&lt;div style=&quot;&quot;&gt;last_login_date&lt;/div&gt;&lt;div style=&quot;&quot;&gt;login_days&lt;/div&gt;&lt;div style=&quot;&quot;&gt;coin_cnt&lt;/div&gt;" style="rounded=0;whiteSpace=wrap;html=1;strokeColor=#00FFFF;fillColor=#CCFFFF;align=center;" parent="1" vertex="1">
                    <mxGeometry x="330" y="810" width="120" height="150" as="geometry"/>
                </mxCell>
                <mxCell id="302" value="[INQUIRY]&lt;br&gt;inquiry_id&lt;br&gt;user_name&lt;br&gt;email&lt;br&gt;inquery_content" style="rounded=0;whiteSpace=wrap;html=1;strokeColor=#00FFFF;fillColor=#CCFFFF;" parent="1" vertex="1">
                    <mxGeometry x="530" y="1145" width="120" height="90" as="geometry"/>
                </mxCell>
                <mxCell id="303" value="[SCHEDULE]&lt;br&gt;user_name&lt;br&gt;Schedule_name&lt;br&gt;start_date&lt;br&gt;start_time&lt;br&gt;finish_date&lt;br&gt;finish_time&lt;br&gt;color_id&lt;br&gt;content" style="rounded=0;whiteSpace=wrap;html=1;strokeColor=#00FFFF;fillColor=#CCFFFF;" parent="1" vertex="1">
                    <mxGeometry x="940" y="350" width="120" height="135" as="geometry"/>
                </mxCell>
                <mxCell id="308" value="[CLOSET]&lt;br&gt;user_name&lt;br&gt;closet_img_id&lt;br&gt;closet_kind_id&lt;br&gt;last_closet" style="rounded=0;whiteSpace=wrap;html=1;strokeColor=#00FFFF;fillColor=#CCFFFF;" parent="1" vertex="1">
                    <mxGeometry x="2030" y="445" width="120" height="90" as="geometry"/>
                </mxCell>
                <mxCell id="309" value="[GACHA]&lt;br&gt;pet_id&lt;br&gt;closet_id&lt;br&gt;closet_path&lt;br&gt;closet_name&lt;br&gt;closet_kind_id&lt;br&gt;rarity" style="rounded=0;whiteSpace=wrap;html=1;strokeColor=#00FFFF;fillColor=#CCFFFF;" parent="1" vertex="1">
                    <mxGeometry x="2570" y="495" width="120" height="120" as="geometry"/>
                </mxCell>
                <mxCell id="315" value="" style="group" parent="1" vertex="1" connectable="0">
                    <mxGeometry x="1140" y="-150" width="140" height="80" as="geometry"/>
                </mxCell>
                <mxCell id="316" value="content" style="rounded=0;whiteSpace=wrap;html=1;fillStyle=auto;fillColor=default;gradientColor=none;" parent="315" vertex="1">
                    <mxGeometry width="140.00000000000003" height="80" as="geometry"/>
                </mxCell>
                <mxCell id="317" value="imgfolder" style="rounded=0;whiteSpace=wrap;html=1;fillStyle=auto;fillColor=default;gradientColor=none;" parent="315" vertex="1">
                    <mxGeometry width="140.00000000000003" height="16" as="geometry"/>
                </mxCell>
                <mxCell id="318" value="Schedule_list&lt;br&gt;DAO.java" style="rounded=0;whiteSpace=wrap;html=1;strokeColor=#FF8000;fillColor=#FFE6CC;" parent="1" vertex="1">
                    <mxGeometry x="1120" y="245" width="120" height="60" as="geometry"/>
                </mxCell>
                <mxCell id="319" value="InquiryDAO.java" style="rounded=0;whiteSpace=wrap;html=1;strokeColor=#FF8000;fillColor=#FFE6CC;" parent="1" vertex="1">
                    <mxGeometry x="330" y="1160" width="120" height="60" as="geometry"/>
                </mxCell>
                <mxCell id="356" style="edgeStyle=none;html=1;exitX=0.5;exitY=1;exitDx=0;exitDy=0;entryX=0.5;entryY=0;entryDx=0;entryDy=0;startArrow=classic;startFill=1;endArrow=classic;endFill=1;" parent="1" source="320" target="301" edge="1">
                    <mxGeometry relative="1" as="geometry"/>
                </mxCell>
                <mxCell id="320" value="SignupDAO.java" style="rounded=0;whiteSpace=wrap;html=1;strokeColor=#FF8000;fillColor=#FFE6CC;" parent="1" vertex="1">
                    <mxGeometry x="330" y="707.5" width="120" height="60" as="geometry"/>
                </mxCell>
                <mxCell id="371" style="edgeStyle=none;html=1;exitX=0.5;exitY=1;exitDx=0;exitDy=0;entryX=0.5;entryY=0;entryDx=0;entryDy=0;startArrow=classic;startFill=1;endArrow=classic;endFill=1;" parent="1" source="321" target="328" edge="1">
                    <mxGeometry relative="1" as="geometry"/>
                </mxCell>
                <mxCell id="321" value="Schedule_edit&lt;br&gt;DAO.java" style="rounded=0;whiteSpace=wrap;html=1;strokeColor=#FF8000;fillColor=#FFE6CC;" parent="1" vertex="1">
                    <mxGeometry x="1580" y="795" width="120" height="60" as="geometry"/>
                </mxCell>
                <mxCell id="373" style="edgeStyle=none;html=1;exitX=0.5;exitY=1;exitDx=0;exitDy=0;entryX=0.5;entryY=0;entryDx=0;entryDy=0;startArrow=classic;startFill=1;endArrow=classic;endFill=1;" parent="1" source="322" target="329" edge="1">
                    <mxGeometry relative="1" as="geometry"/>
                </mxCell>
                <mxCell id="322" value="Schedule_regist&lt;br&gt;DAO.java" style="rounded=0;whiteSpace=wrap;html=1;strokeColor=#FF8000;fillColor=#FFE6CC;" parent="1" vertex="1">
                    <mxGeometry x="1570" y="387.5" width="120" height="60" as="geometry"/>
                </mxCell>
                <mxCell id="323" value="Pet_home&lt;br&gt;DAO.java" style="rounded=0;whiteSpace=wrap;html=1;strokeColor=#FF8000;fillColor=#FFE6CC;" parent="1" vertex="1">
                    <mxGeometry x="2170" y="260" width="120" height="60" as="geometry"/>
                </mxCell>
                <mxCell id="324" value="Schedule_delete&lt;br&gt;DAO.java" style="rounded=0;whiteSpace=wrap;html=1;strokeColor=#FF8000;fillColor=#FFE6CC;" parent="1" vertex="1">
                    <mxGeometry x="1570" y="1162.5" width="120" height="60" as="geometry"/>
                </mxCell>
                <mxCell id="325" value="LoginDAO.java&lt;br style=&quot;border-color: var(--border-color);&quot;&gt;ログイン" style="rounded=0;whiteSpace=wrap;html=1;strokeColor=#FF8000;fillColor=#FFE6CC;" parent="1" vertex="1">
                    <mxGeometry x="490" y="247.5" width="120" height="60" as="geometry"/>
                </mxCell>
                <mxCell id="326" value="GachaDAO.java" style="rounded=0;whiteSpace=wrap;html=1;strokeColor=#FF8000;fillColor=#FFE6CC;" parent="1" vertex="1">
                    <mxGeometry x="2570" y="380" width="120" height="60" as="geometry"/>
                </mxCell>
                <mxCell id="327" value="[SCHEDULE]&lt;br&gt;user_name&lt;br&gt;Schedule_name&lt;br&gt;start_date&lt;br&gt;start_time&lt;br&gt;finish_date&lt;br&gt;finish_time&lt;br&gt;color_id&lt;br&gt;content" style="rounded=0;whiteSpace=wrap;html=1;strokeColor=#00FFFF;fillColor=#CCFFFF;" parent="1" vertex="1">
                    <mxGeometry x="1794" y="1155" width="120" height="135" as="geometry"/>
                </mxCell>
                <mxCell id="328" value="[SCHEDULE]&lt;br&gt;user_name&lt;br&gt;Schedule_name&lt;br&gt;start_date&lt;br&gt;start_time&lt;br&gt;finish_date&lt;br&gt;finish_time&lt;br&gt;color_id&lt;br&gt;content" style="rounded=0;whiteSpace=wrap;html=1;strokeColor=#00FFFF;fillColor=#CCFFFF;" parent="1" vertex="1">
                    <mxGeometry x="1580" y="890" width="120" height="135" as="geometry"/>
                </mxCell>
                <mxCell id="329" value="[SCHEDULE]&lt;br&gt;user_name&lt;br&gt;Schedule_name&lt;br&gt;start_date&lt;br&gt;start_time&lt;br&gt;finish_date&lt;br&gt;finish_time&lt;br&gt;color_id&lt;br&gt;content" style="rounded=0;whiteSpace=wrap;html=1;strokeColor=#00FFFF;fillColor=#CCFFFF;" parent="1" vertex="1">
                    <mxGeometry x="1570" y="480" width="120" height="135" as="geometry"/>
                </mxCell>
                <mxCell id="333" value="modal_detail.js&lt;br&gt;スケジュール詳細&lt;br&gt;モーダル" style="rounded=0;whiteSpace=wrap;html=1;strokeColor=#FFFF00;fillColor=#FFFFCC;" parent="1" vertex="1">
                    <mxGeometry x="1210" y="535" width="120" height="60" as="geometry"/>
                </mxCell>
                <mxCell id="334" value="menu.js&lt;br&gt;ハンバーガー&lt;br&gt;メニュー" style="rounded=0;whiteSpace=wrap;html=1;strokeColor=#FFFF00;fillColor=#FFFFCC;" parent="1" vertex="1">
                    <mxGeometry x="840" y="57.5" width="120" height="60" as="geometry"/>
                </mxCell>
                <mxCell id="365" style="edgeStyle=none;html=1;exitX=1;exitY=0.5;exitDx=0;exitDy=0;startArrow=classic;startFill=1;endArrow=classic;endFill=1;" parent="1" source="335" edge="1">
                    <mxGeometry relative="1" as="geometry">
                        <mxPoint x="1380.0000000000002" y="465" as="targetPoint"/>
                    </mxGeometry>
                </mxCell>
                <mxCell id="335" value="calendar.js&lt;br&gt;カレンダー" style="rounded=0;whiteSpace=wrap;html=1;strokeColor=#FFFF00;fillColor=#FFFFCC;" parent="1" vertex="1">
                    <mxGeometry x="1210" y="435" width="120" height="60" as="geometry"/>
                </mxCell>
                <mxCell id="336" value="push.js&lt;br&gt;プッシュ通知" style="rounded=0;whiteSpace=wrap;html=1;strokeColor=#FFFF00;fillColor=#FFFFCC;" parent="1" vertex="1">
                    <mxGeometry x="700" y="57.5" width="120" height="60" as="geometry"/>
                </mxCell>
                <mxCell id="337" value="radio_img.js&lt;br&gt;ラジオボタン画像" style="rounded=0;whiteSpace=wrap;html=1;strokeColor=#FFFF00;fillColor=#FFFFCC;" parent="1" vertex="1">
                    <mxGeometry x="700" y="690" width="120" height="60" as="geometry"/>
                </mxCell>
                <mxCell id="338" value="gacha.js&lt;br&gt;ガチャの演出" style="rounded=0;whiteSpace=wrap;html=1;strokeColor=#FFFF00;fillColor=#FFFFCC;" parent="1" vertex="1">
                    <mxGeometry x="2920" y="425" width="120" height="60" as="geometry"/>
                </mxCell>
                <mxCell id="339" value="message.js&lt;br&gt;ひとことメッセージ" style="rounded=0;whiteSpace=wrap;html=1;strokeColor=#FFFF00;fillColor=#FFFFCC;" parent="1" vertex="1">
                    <mxGeometry x="2470" y="40" width="120" height="60" as="geometry"/>
                </mxCell>
                <mxCell id="366" style="edgeStyle=none;html=1;exitX=1;exitY=0.5;exitDx=0;exitDy=0;startArrow=classic;startFill=1;endArrow=classic;endFill=1;" parent="1" source="340" edge="1">
                    <mxGeometry relative="1" as="geometry">
                        <mxPoint x="1380.0000000000002" y="385" as="targetPoint"/>
                    </mxGeometry>
                </mxCell>
                <mxCell id="340" value="speech_bubble.js&lt;br&gt;ふきだしメッセージ" style="rounded=0;whiteSpace=wrap;html=1;strokeColor=#FFFF00;fillColor=#FFFFCC;" parent="1" vertex="1">
                    <mxGeometry x="1210" y="355" width="120" height="60" as="geometry"/>
                </mxCell>
                <mxCell id="341" value="motion.js&lt;br&gt;モーション" style="rounded=0;whiteSpace=wrap;html=1;strokeColor=#FFFF00;fillColor=#FFFFCC;" parent="1" vertex="1">
                    <mxGeometry x="2530" y="90" width="120" height="60" as="geometry"/>
                </mxCell>
                <mxCell id="345" value="error_message_&lt;br&gt;schedule.js&lt;br&gt;スケジュール&lt;br&gt;登録,編集画面&lt;br&gt;エラーメッセージ" style="rounded=0;whiteSpace=wrap;html=1;strokeColor=#FFFF00;fillColor=#FFFFCC;" parent="1" vertex="1">
                    <mxGeometry x="1794" y="740" width="120" height="60" as="geometry"/>
                </mxCell>
                <mxCell id="346" value="modal_closet.js&lt;br&gt;きせかえ&lt;br&gt;モーダル" style="rounded=0;whiteSpace=wrap;html=1;strokeColor=#FFFF00;fillColor=#FFFFCC;" parent="1" vertex="1">
                    <mxGeometry x="2620" y="130" width="120" height="60" as="geometry"/>
                </mxCell>
                <mxCell id="347" value="modal_gacha_result.js&lt;br&gt;ガチャ結果&lt;br&gt;モーダル" style="rounded=0;whiteSpace=wrap;html=1;strokeColor=#FFFF00;fillColor=#FFFFCC;" parent="1" vertex="1">
                    <mxGeometry x="2920" y="350" width="120" height="60" as="geometry"/>
                </mxCell>
                <mxCell id="348" value="error_message_&lt;br&gt;login.js&lt;br&gt;ログイン画面&lt;br&gt;エラーメッセージ" style="rounded=0;whiteSpace=wrap;html=1;strokeColor=#FFFF00;fillColor=#FFFFCC;" parent="1" vertex="1">
                    <mxGeometry x="50" y="185" width="120" height="60" as="geometry"/>
                </mxCell>
                <mxCell id="355" style="edgeStyle=none;html=1;exitX=0;exitY=0.5;exitDx=0;exitDy=0;startArrow=classic;startFill=1;endArrow=none;endFill=0;" parent="1" source="349" edge="1">
                    <mxGeometry relative="1" as="geometry">
                        <mxPoint x="670" y="640" as="targetPoint"/>
                    </mxGeometry>
                </mxCell>
                <mxCell id="349" value="error_message_&lt;br&gt;signup.js&lt;br&gt;新規登録画面&lt;br&gt;エラーメッセージ" style="rounded=0;whiteSpace=wrap;html=1;strokeColor=#FFFF00;fillColor=#FFFFCC;" parent="1" vertex="1">
                    <mxGeometry x="700" y="610" width="120" height="60" as="geometry"/>
                </mxCell>
                <mxCell id="350" value="error_message_&lt;br&gt;inquiry.js&lt;br&gt;お問い合わせ画面&lt;br&gt;エラーメッセージ" style="rounded=0;whiteSpace=wrap;html=1;strokeColor=#FFFF00;fillColor=#FFFFCC;" parent="1" vertex="1">
                    <mxGeometry x="690" y="1040" width="120" height="60" as="geometry"/>
                </mxCell>
                <mxCell id="359" value="" style="rounded=0;whiteSpace=wrap;html=1;fillColor=none;" parent="1" vertex="1">
                    <mxGeometry x="670" y="20" width="310" height="110" as="geometry"/>
                </mxCell>
                <mxCell id="369" value="error_message_&lt;br&gt;schedule.js&lt;br&gt;スケジュール&lt;br&gt;登録,編集画面&lt;br&gt;エラーメッセージ" style="rounded=0;whiteSpace=wrap;html=1;strokeColor=#FFFF00;fillColor=#FFFFCC;" parent="1" vertex="1">
                    <mxGeometry x="1794" y="350" width="120" height="60" as="geometry"/>
                </mxCell>
                <mxCell id="370" value="偏在する" style="text;html=1;strokeColor=none;fillColor=none;align=center;verticalAlign=middle;whiteSpace=wrap;rounded=0;" parent="1" vertex="1">
                    <mxGeometry x="680" y="27.5" width="60" height="30" as="geometry"/>
                </mxCell>
                <mxCell id="379" value="turn.js&lt;br&gt;にわとり画像回転" style="rounded=0;whiteSpace=wrap;html=1;strokeColor=#FFFF00;fillColor=#FFFFCC;" parent="1" vertex="1">
                    <mxGeometry x="2920" y="507.5" width="120" height="60" as="geometry"/>
                </mxCell>
            </root>
        </mxGraphModel>
    </diagram>
</mxfile>